<!DOCTYPE svg PUBLIC "-//W3C//DTD SVG 1.1//EN" "http://www.w3.org/Graphics/SVG/1.1/DTD/svg11.dtd">
<!-- Uploaded to: SVG Repo, www.svgrepo.com, Transformed by: SVG Repo Mixer Tools -->
<svg height="64px" width="64px" version="1.1" id="_x32_" xmlns="http://www.w3.org/2000/svg" xmlns:xlink="http://www.w3.org/1999/xlink" viewBox="0 0 512 512" xml:space="preserve" fill="#ffffff">
<g id="SVGRepo_bgCarrier" stroke-width="0"/>
<g id="SVGRepo_tracerCarrier" stroke-linecap="round" stroke-linejoin="round"/>
<g id="SVGRepo_iconCarrier"> <style type="text/css"> .st0{fill:#ffffff;} </style> <g> <path class="st0" d="M511.814,273.543c0.068-0.202,0.135-0.388,0.186-0.59h-0.448L428.664,82.365c0,0,0,0,0.017,0 c10.713,0.794,19.604,1.536,26.129,2.17l1.672-17.924c-26.965-2.491-91.989-7.269-162.399-8.688 c-1.342-8.188-5.242-15.584-10.848-21.19c-6.94-6.957-16.623-11.279-27.235-11.279c-10.613,0-20.321,4.322-27.26,11.279 c-5.598,5.605-9.507,13.001-10.824,21.19C147.498,59.342,82.44,64.12,55.492,66.611l1.672,17.924 c6.543-0.634,15.416-1.376,26.146-2.17L0.43,272.953H0c0.042,0.202,0.126,0.388,0.177,0.59l-0.161,0.363l0.338,0.152 c12.546,39.848,49.794,68.73,93.787,68.73c43.976,0,81.208-28.882,93.77-68.73l0.329-0.152l-0.152-0.346l0.009-0.017 c0.042-0.202,0.118-0.388,0.168-0.59h-0.439L104.298,80.87c0,0,0,0,0.008,0c31.482-2.043,72.352-4.162,115.054-4.973 c1.874,5.851,5.141,11.111,9.38,15.357c4.904,4.93,11.22,8.526,18.261,10.215v299.817c-7.058,0-13.601,0-18.844,0 c-7.404,0-12.2,0-12.208,0h-7.666l-1.216,7.556c0,0.094-1.621,9.448-6.256,18.81c-2.296,4.686-5.302,9.338-8.966,12.942 c-3.69,3.605-7.86,6.188-13.095,7.354l-7.04,1.57v37.028h168.552v-8.982v-28.046l-7.032-1.57 c-5.302-1.182-9.532-3.833-13.272-7.531c-2.76-2.769-5.175-6.138-7.159-9.658c-2.997-5.277-5.024-10.908-6.256-15.129 c-0.625-2.11-1.039-3.884-1.292-5.082c-0.135-0.592-0.219-1.056-0.27-1.334l-0.051-0.304l-0.016-0.05l-1.208-7.573h-7.674 c0,0-13.997,0-31.043,0V101.469c7.042-1.688,13.339-5.284,18.244-10.215c4.247-4.246,7.522-9.506,9.405-15.357 c42.668,0.811,83.571,2.93,115.045,4.973c0.009,0,0.009,0,0.009,0l-83.53,192.083h-0.447c0.067,0.202,0.135,0.388,0.186,0.59 l-0.161,0.363l0.346,0.152c12.528,39.848,49.793,68.73,93.77,68.73c43.985,0,81.224-28.882,93.779-68.73l0.33-0.152l-0.152-0.346 V273.543z M94.141,327.372c-28.83,0-55.382-15.315-70.334-39.004h140.626C149.498,312.057,122.964,327.372,94.141,327.372z M171.01,272.953H17.248L94.116,96.159L171.01,272.953z M288.883,419.26c1.165,4.23,3.014,9.819,5.859,15.754 c2.921,6.044,6.898,12.494,12.503,18.117c4.061,4.086,9.101,7.699,15.036,10.156v5.276h-132.58v-5.276 c5.943-2.457,10.976-6.071,15.036-10.156c4.204-4.204,7.497-8.898,10.105-13.533c3.909-6.949,6.349-13.77,7.86-18.937 c0.135-0.48,0.262-0.928,0.388-1.401c1.504,0,3.2,0.017,5.066,0.017c7.421-0.017,17.425-0.017,27.834-0.017 C269.035,419.26,281.428,419.26,288.883,419.26z M272.936,75.636c-0.735,1.047-1.528,2.009-2.423,2.904 c-3.723,3.724-8.814,6.011-14.512,6.011c-5.708,0-10.798-2.287-14.546-6.011c-0.87-0.895-1.697-1.857-2.407-2.904 c-2.262-3.31-3.605-7.295-3.605-11.651c0-2.229,0.338-4.339,1.006-6.332c0.996-3.107,2.743-5.91,5.006-8.206 c3.748-3.715,8.838-6.011,14.546-6.011c5.699,0,10.789,2.296,14.512,6.011c2.288,2.296,4.036,5.099,5.04,8.206 c0.667,1.993,0.996,4.103,0.996,6.332C276.548,68.341,275.214,72.327,272.936,75.636z M417.858,327.372 c-28.823,0-55.366-15.315-70.317-39.004H488.15C473.232,312.057,446.689,327.372,417.858,327.372z M340.964,272.953l76.894-176.793 l76.886,176.793H340.964z"/> </g> </g>
</svg>